<svg version="1.1" viewBox="0.0 0.0 960.0 720.0" fill="none" stroke="none" stroke-linecap="square" stroke-miterlimit="10" xmlns:xlink="http://www.w3.org/1999/xlink" xmlns="http://www.w3.org/2000/svg"><clipPath id="p.0"><path d="m0 0l960.0 0l0 720.0l-960.0 0l0 -720.0z" clip-rule="nonzero"/></clipPath><g clip-path="url(#p.0)"><path fill="#000000" fill-opacity="0.0" d="m0 0l960.0 0l0 720.0l-960.0 0z" fill-rule="evenodd"/><path fill="#ffffff" d="m188.50038 40.312477l0 0c3.8907166 -3.8907127 10.198807 -3.8907127 14.089523 0l597.09155 597.09155c1.8684082 1.8684082 2.9180908 4.402466 2.9180908 7.044739c0 2.642334 -1.0496826 5.1763916 -2.9180908 7.0448l-28.178162 28.178162c-3.890747 3.890747 -10.1987915 3.890747 -14.089539 0l-597.09155 -597.09155c-3.8907166 -3.8907166 -3.8907166 -10.198807 0 -14.089523z" fill-rule="evenodd"/><path fill="#ffffff" d="m799.6795 68.507034l0 0c3.890747 3.8907166 3.890747 10.198807 0 14.089523l-597.09155 597.09155c-1.868393 1.8684082 -4.402466 2.9180908 -7.0447693 2.9180908c-2.6422882 0 -5.176361 -1.0496826 -7.044754 -2.9180908l-28.178192 -28.178162c-3.8907166 -3.890747 -3.8907166 -10.1987915 0 -14.089539l597.09155 -597.09155c3.890747 -3.8907127 10.1987915 -3.8907127 14.089539 0z" fill-rule="evenodd"/></g></svg>